<?xml version="1.0" encoding="utf-8"?>
<!-- Generator: Adobe Illustrator 27.5.0, SVG Export Plug-In . SVG Version: 6.00 Build 0)  -->
<svg version="1.1" id="Layer_1" xmlns="http://www.w3.org/2000/svg" xmlns:xlink="http://www.w3.org/1999/xlink" x="0px" y="0px"
	 viewBox="0 0 382.24 235.691" style="enable-background:new 0 0 382.24 235.691;" xml:space="preserve">
<g>
	<g>
		<path style="fill:#FFFFFF;" d="M131.076,182.772c8.566,6.301,14.537,14.865,20.332,23.178c6.279,9.013,12.21,17.527,21.344,21.528
			c3.556,1.562,7.713,2.321,12.713,2.321c26.046-0.003,78.658-22.279,88.948-26.747c0.26-0.113,0.516-0.234,0.766-0.361
			c46.111-9.594,89.32-30.907,89.73-31.11c4.919-2.428,7.967-7.54,7.765-13.014c-3.952-109.56-74.277-129.669-109.218-132.853
			c-6.227-4.311-14.891-5.11-20.448-5.11c-11.821,0-19.247,3.188-23.411,7.604c-0.564,0.109-1.125,0.221-1.674,0.332
			c-0.675,0.136-1.348,0.277-2.025,0.422c-0.66,0.141-1.318,0.283-1.971,0.431c-0.83,0.188-1.658,0.385-2.5,0.588l-0.49,0.117
			c-0.34,0.08-0.679,0.16-1.015,0.245c-1.264,0.316-2.521,0.649-3.787,0.996c-0.339,0.093-0.677,0.189-1.015,0.286l-0.47,0.134
			c-0.865,0.246-1.728,0.496-2.595,0.756c-0.509,0.153-1.018,0.307-1.5,0.457c-0.939,0.29-1.873,0.59-2.806,0.896l-0.352,0.115
			c-0.277,0.09-0.555,0.18-0.829,0.273c-1.304,0.439-2.604,0.891-3.899,1.362l-0.818,0.304c-1.038,0.383-2.072,0.775-3.123,1.185
			l-1.242,0.493c-0.928,0.372-1.852,0.751-2.762,1.134l-1.173,0.495c-1.275,0.548-2.543,1.106-3.798,1.684
			c-26.934,12.392-47.34,39.142-62.279,81.688c-10.116,4.243-26.615,11.945-47.594,24.494
			c-34.199,20.456-46.116,49.954-45.595,63.718c0.318,8.874,5.912,12.603,8.236,13.761c2.451,1.239,5.048,1.868,7.718,1.868
			c4.21,0,8.157-1.572,11.277-4.46C67.833,210.26,103.391,188.505,131.076,182.772z"/>
		<path style="fill:#F1F1F1;" d="M129.739,181.434c8.566,6.301,14.537,14.865,20.332,23.178c6.279,9.013,12.21,17.527,21.344,21.528
			c3.556,1.562,7.713,2.321,12.713,2.321c26.046-0.003,78.658-22.279,88.948-26.747c0.26-0.113,0.516-0.234,0.766-0.361
			c46.111-9.594,89.32-30.907,89.73-31.11c4.919-2.428,7.967-7.54,7.765-13.014C367.385,47.669,297.06,27.559,262.119,24.375
			c-6.227-4.311-14.891-5.11-20.448-5.11c-11.821,0-19.247,3.188-23.411,7.604c-0.564,0.109-1.125,0.221-1.675,0.332
			c-0.675,0.136-1.348,0.277-2.025,0.422c-0.66,0.141-1.318,0.283-1.971,0.43c-0.83,0.188-1.658,0.385-2.5,0.588l-0.49,0.117
			c-0.34,0.08-0.679,0.16-1.015,0.245c-1.264,0.316-2.521,0.649-3.787,0.996c-0.339,0.093-0.677,0.189-1.015,0.286l-0.47,0.134
			c-0.866,0.246-1.728,0.496-2.595,0.756c-0.509,0.153-1.018,0.307-1.5,0.457c-0.939,0.29-1.873,0.59-2.805,0.896l-0.352,0.115
			c-0.277,0.09-0.555,0.18-0.829,0.273c-1.304,0.439-2.604,0.891-3.899,1.362l-0.818,0.304c-1.038,0.383-2.072,0.775-3.123,1.185
			l-1.242,0.493c-0.928,0.372-1.852,0.751-2.762,1.134l-1.173,0.495c-1.275,0.548-2.543,1.106-3.798,1.684
			c-26.934,12.392-47.34,39.142-62.279,81.688c-10.116,4.243-26.615,11.945-47.594,24.494
			c-34.199,20.456-46.116,49.954-45.595,63.718c0.318,8.874,5.916,12.596,8.236,13.761c2.455,1.232,5.048,1.868,7.718,1.868
			c4.21,0,8.157-1.572,11.277-4.46C66.496,208.923,102.053,187.168,129.739,181.434z"/>
		<path style="fill:#E2E2E2;" d="M128.402,180.097c8.566,6.301,14.537,14.865,20.332,23.178c6.279,9.013,12.21,17.527,21.343,21.528
			c3.556,1.562,7.713,2.321,12.713,2.321c26.046-0.003,78.658-22.279,88.948-26.748c0.26-0.113,0.516-0.234,0.766-0.361
			c46.111-9.594,89.32-30.907,89.73-31.11c4.919-2.428,7.967-7.54,7.765-13.014c-3.952-109.56-74.277-129.669-109.218-132.853
			c-6.227-4.311-14.891-5.11-20.448-5.11c-11.821,0-19.247,3.188-23.411,7.604c-0.564,0.109-1.125,0.221-1.675,0.332
			c-0.675,0.136-1.348,0.277-2.025,0.422c-0.66,0.141-1.318,0.283-1.971,0.43c-0.83,0.188-1.658,0.385-2.5,0.588l-0.49,0.117
			c-0.34,0.08-0.679,0.16-1.015,0.245c-1.264,0.316-2.521,0.649-3.787,0.996c-0.339,0.093-0.677,0.189-1.015,0.286l-0.47,0.134
			c-0.866,0.246-1.728,0.496-2.595,0.756c-0.509,0.153-1.018,0.307-1.5,0.457c-0.939,0.29-1.873,0.59-2.805,0.896l-0.353,0.115
			c-0.277,0.09-0.555,0.18-0.829,0.273c-1.304,0.439-2.604,0.891-3.899,1.362l-0.818,0.304c-1.038,0.383-2.072,0.775-3.123,1.185
			l-1.242,0.494c-0.928,0.372-1.852,0.752-2.762,1.134l-1.173,0.495c-1.275,0.548-2.543,1.106-3.798,1.684
			c-26.934,12.392-47.34,39.142-62.279,81.688c-10.116,4.243-26.615,11.945-47.594,24.494
			c-34.199,20.456-46.116,49.954-45.595,63.718c0.318,8.874,5.916,12.596,8.236,13.761c2.455,1.232,5.048,1.868,7.718,1.868
			c4.21,0,8.157-1.572,11.277-4.46C65.159,207.586,100.716,185.83,128.402,180.097z"/>
		<path style="fill:#D4D4D4;" d="M127.064,178.76c8.566,6.301,14.537,14.865,20.332,23.178c6.279,9.013,12.21,17.527,21.343,21.528
			c3.556,1.562,7.713,2.321,12.713,2.321c26.046-0.003,78.658-22.279,88.948-26.747c0.26-0.113,0.516-0.234,0.766-0.361
			c46.111-9.594,89.32-30.906,89.73-31.11c4.919-2.428,7.967-7.54,7.765-13.014c-3.952-109.56-74.277-129.669-109.219-132.854
			c-6.227-4.311-14.891-5.11-20.448-5.11c-11.821,0-19.247,3.188-23.411,7.604c-0.564,0.108-1.125,0.221-1.675,0.332
			c-0.675,0.136-1.348,0.277-2.025,0.422c-0.66,0.141-1.318,0.283-1.971,0.431c-0.83,0.188-1.658,0.385-2.5,0.588l-0.49,0.117
			c-0.339,0.08-0.679,0.161-1.015,0.245c-1.264,0.316-2.521,0.649-3.787,0.996c-0.339,0.093-0.677,0.189-1.015,0.286l-0.47,0.134
			c-0.866,0.246-1.728,0.496-2.595,0.756c-0.509,0.153-1.018,0.307-1.5,0.457c-0.939,0.29-1.873,0.59-2.806,0.896l-0.352,0.115
			c-0.277,0.09-0.555,0.18-0.829,0.273c-1.304,0.439-2.604,0.891-3.899,1.362l-0.818,0.304c-1.038,0.383-2.072,0.775-3.123,1.185
			l-1.242,0.494c-0.928,0.372-1.852,0.751-2.762,1.134l-1.173,0.495c-1.275,0.548-2.543,1.106-3.798,1.684
			c-26.934,12.392-47.34,39.142-62.279,81.688c-10.116,4.243-26.615,11.945-47.594,24.494
			c-34.199,20.456-46.116,49.954-45.595,63.718c0.318,8.874,5.916,12.596,8.236,13.761c2.455,1.232,5.048,1.868,7.718,1.868
			c4.21,0,8.157-1.572,11.277-4.46C63.821,206.249,99.379,184.493,127.064,178.76z"/>
		<path style="fill:#C5C5C5;" d="M125.727,177.422c8.566,6.301,14.537,14.865,20.332,23.178c6.279,9.013,12.21,17.527,21.343,21.528
			c3.556,1.562,7.713,2.321,12.713,2.321c26.046-0.003,78.658-22.279,88.948-26.747c0.26-0.113,0.516-0.234,0.766-0.361
			c46.111-9.594,89.32-30.907,89.73-31.11c4.919-2.428,7.967-7.54,7.765-13.014c-3.952-109.56-74.277-129.669-109.219-132.853
			c-6.227-4.311-14.891-5.11-20.448-5.11c-11.821,0-19.247,3.188-23.411,7.604c-0.564,0.108-1.125,0.221-1.674,0.332
			c-0.675,0.136-1.348,0.277-2.025,0.422c-0.66,0.141-1.318,0.283-1.971,0.431c-0.83,0.188-1.658,0.385-2.5,0.588l-0.49,0.117
			c-0.339,0.08-0.679,0.16-1.015,0.245c-1.264,0.316-2.521,0.649-3.787,0.996c-0.339,0.093-0.677,0.189-1.015,0.286l-0.47,0.134
			c-0.866,0.246-1.728,0.496-2.595,0.756c-0.509,0.153-1.018,0.307-1.5,0.457c-0.939,0.29-1.873,0.59-2.805,0.896l-0.353,0.115
			c-0.277,0.09-0.555,0.18-0.829,0.273c-1.304,0.439-2.604,0.891-3.899,1.362l-0.818,0.304c-1.038,0.383-2.072,0.775-3.123,1.185
			l-1.242,0.494c-0.928,0.372-1.852,0.751-2.762,1.134l-1.173,0.495c-1.275,0.548-2.543,1.106-3.798,1.684
			c-26.934,12.392-47.34,39.142-62.279,81.688c-10.116,4.243-26.615,11.945-47.594,24.494
			C30.33,162.2,18.413,191.698,18.934,205.462c0.318,8.874,5.916,12.596,8.236,13.761c2.455,1.232,5.048,1.868,7.718,1.868
			c4.21,0,8.157-1.572,11.277-4.46C62.484,204.911,98.041,183.156,125.727,177.422z"/>
		<path style="fill:#B7B7B7;" d="M124.39,176.085c8.566,6.301,14.537,14.865,20.332,23.178c6.279,9.013,12.21,17.527,21.343,21.528
			c3.556,1.562,7.713,2.321,12.713,2.321c26.046-0.003,78.658-22.279,88.948-26.747c0.26-0.113,0.516-0.234,0.766-0.361
			c46.111-9.594,89.32-30.906,89.73-31.11c4.919-2.428,7.967-7.54,7.765-13.014C362.036,42.32,291.711,22.21,256.77,19.026
			c-6.227-4.311-14.891-5.11-20.448-5.11c-11.821,0-19.247,3.188-23.411,7.604c-0.564,0.109-1.125,0.221-1.674,0.332
			c-0.675,0.136-1.348,0.277-2.025,0.422c-0.66,0.141-1.318,0.283-1.971,0.431c-0.83,0.188-1.658,0.385-2.5,0.588l-0.49,0.117
			c-0.34,0.08-0.679,0.16-1.015,0.245c-1.264,0.316-2.521,0.649-3.787,0.996c-0.339,0.093-0.677,0.189-1.015,0.286l-0.47,0.134
			c-0.865,0.246-1.728,0.496-2.595,0.756c-0.509,0.153-1.018,0.307-1.5,0.457c-0.939,0.29-1.873,0.59-2.805,0.896l-0.353,0.115
			c-0.277,0.09-0.555,0.18-0.829,0.273c-1.304,0.439-2.604,0.891-3.899,1.362l-0.818,0.304c-1.038,0.383-2.072,0.775-3.123,1.185
			l-1.242,0.494c-0.928,0.372-1.852,0.751-2.762,1.134l-1.173,0.495c-1.275,0.548-2.543,1.106-3.798,1.684
			c-26.934,12.392-47.34,39.142-62.279,81.688c-10.116,4.243-26.615,11.945-47.594,24.494
			c-34.199,20.456-46.116,49.954-45.595,63.718c0.318,8.874,5.916,12.596,8.236,13.761c2.455,1.232,5.048,1.868,7.718,1.868
			c4.21,0,8.157-1.571,11.277-4.46C61.147,203.574,96.704,181.818,124.39,176.085z"/>
		<path style="fill:#A8A8A8;" d="M123.052,174.748c8.566,6.301,14.537,14.865,20.332,23.178c6.279,9.013,12.21,17.527,21.344,21.528
			c3.556,1.562,7.713,2.321,12.713,2.321c26.046-0.003,78.658-22.279,88.948-26.747c0.26-0.113,0.516-0.234,0.766-0.361
			c46.111-9.594,89.32-30.907,89.73-31.11c4.919-2.428,7.967-7.54,7.765-13.014c-3.952-109.56-74.277-129.669-109.218-132.853
			c-6.227-4.311-14.891-5.11-20.448-5.11c-11.821,0-19.247,3.188-23.411,7.604c-0.564,0.109-1.125,0.221-1.674,0.332
			c-0.675,0.136-1.348,0.277-2.025,0.422c-0.66,0.141-1.318,0.283-1.971,0.431c-0.83,0.188-1.658,0.385-2.5,0.588l-0.49,0.117
			c-0.34,0.08-0.679,0.16-1.015,0.245c-1.264,0.316-2.521,0.649-3.787,0.996c-0.339,0.093-0.677,0.189-1.015,0.286l-0.47,0.134
			c-0.865,0.246-1.728,0.496-2.595,0.756c-0.509,0.153-1.018,0.307-1.5,0.457c-0.939,0.29-1.873,0.59-2.805,0.896l-0.352,0.115
			c-0.277,0.09-0.555,0.18-0.829,0.273c-1.304,0.439-2.604,0.891-3.899,1.362l-0.818,0.304c-1.038,0.383-2.072,0.775-3.123,1.185
			l-1.242,0.493c-0.928,0.372-1.852,0.752-2.762,1.134l-1.173,0.495c-1.275,0.548-2.543,1.106-3.798,1.684
			c-26.934,12.392-47.34,39.142-62.279,81.688c-10.116,4.243-26.615,11.945-47.594,24.494
			c-34.199,20.456-46.116,49.954-45.595,63.718c0.318,8.874,5.916,12.596,8.236,13.761c2.455,1.232,5.048,1.868,7.718,1.868
			c4.21,0,8.157-1.572,11.277-4.46C59.81,202.236,95.367,180.481,123.052,174.748z"/>
		<path style="fill:#9A9A9A;" d="M121.715,173.41c8.566,6.301,14.537,14.865,20.332,23.178c6.279,9.013,12.21,17.527,21.343,21.528
			c3.556,1.562,7.713,2.321,12.713,2.321c26.046-0.003,78.658-22.279,88.948-26.747c0.26-0.113,0.516-0.234,0.766-0.361
			c46.111-9.594,89.32-30.907,89.73-31.11c4.919-2.428,7.967-7.54,7.765-13.014c-3.952-109.56-74.277-129.669-109.218-132.853
			c-6.227-4.311-14.891-5.11-20.448-5.11c-11.821,0-19.247,3.188-23.411,7.604c-0.564,0.109-1.125,0.221-1.675,0.332
			c-0.675,0.136-1.348,0.277-2.025,0.422c-0.66,0.141-1.318,0.283-1.971,0.43c-0.83,0.188-1.658,0.385-2.5,0.588l-0.49,0.117
			c-0.34,0.08-0.679,0.16-1.015,0.245c-1.263,0.316-2.521,0.649-3.787,0.996c-0.339,0.093-0.677,0.189-1.015,0.286l-0.47,0.134
			c-0.866,0.246-1.728,0.496-2.595,0.756c-0.509,0.153-1.018,0.307-1.5,0.457c-0.939,0.29-1.873,0.59-2.805,0.896l-0.353,0.115
			c-0.277,0.09-0.555,0.18-0.829,0.273c-1.304,0.439-2.604,0.891-3.899,1.362l-0.818,0.304c-1.038,0.383-2.072,0.775-3.123,1.185
			l-1.242,0.493c-0.928,0.372-1.852,0.751-2.762,1.134l-1.173,0.495c-1.275,0.548-2.543,1.106-3.798,1.684
			c-26.934,12.392-47.34,39.142-62.279,81.688c-10.116,4.243-26.615,11.945-47.594,24.494
			c-34.199,20.456-46.116,49.954-45.595,63.718c0.318,8.874,5.916,12.596,8.237,13.761c2.455,1.232,5.048,1.868,7.718,1.868
			c4.21,0,8.157-1.572,11.277-4.46C58.472,200.899,94.029,179.144,121.715,173.41z"/>
		<path style="fill:#8B8B8B;" d="M120.378,172.073c8.566,6.301,14.537,14.865,20.332,23.178c6.279,9.013,12.21,17.527,21.344,21.528
			c3.556,1.562,7.713,2.321,12.713,2.321c26.046-0.003,78.658-22.279,88.948-26.748c0.26-0.113,0.516-0.234,0.766-0.361
			c46.111-9.594,89.32-30.907,89.73-31.11c4.919-2.428,7.967-7.54,7.765-13.014c-3.952-109.56-74.277-129.669-109.218-132.853
			c-6.227-4.311-14.891-5.11-20.448-5.11c-11.821,0-19.247,3.188-23.411,7.604c-0.564,0.109-1.125,0.221-1.675,0.332
			c-0.675,0.136-1.348,0.277-2.025,0.422c-0.66,0.141-1.318,0.283-1.971,0.43c-0.83,0.188-1.658,0.385-2.5,0.588l-0.49,0.117
			c-0.34,0.08-0.679,0.161-1.015,0.245c-1.264,0.316-2.521,0.649-3.787,0.996c-0.339,0.093-0.677,0.189-1.015,0.286l-0.47,0.134
			c-0.866,0.246-1.728,0.496-2.595,0.756c-0.509,0.153-1.018,0.307-1.5,0.457c-0.939,0.29-1.873,0.59-2.806,0.896l-0.352,0.115
			c-0.277,0.09-0.555,0.18-0.829,0.273c-1.304,0.439-2.604,0.891-3.899,1.362l-0.818,0.304c-1.038,0.383-2.072,0.775-3.123,1.185
			l-1.242,0.494c-0.928,0.372-1.852,0.752-2.762,1.134l-1.173,0.495c-1.275,0.548-2.543,1.106-3.798,1.684
			c-26.934,12.392-47.34,39.142-62.279,81.688c-10.116,4.243-26.615,11.945-47.594,24.494
			c-34.199,20.456-46.116,49.954-45.595,63.718c0.318,8.874,5.916,12.596,8.236,13.761c2.455,1.232,5.048,1.868,7.718,1.868
			c4.21,0,8.157-1.572,11.277-4.46C57.135,199.562,92.692,177.807,120.378,172.073z"/>
		<path style="fill:#7D7D7D;" d="M119.04,170.736c8.566,6.301,14.537,14.865,20.332,23.178c6.279,9.013,12.21,17.527,21.343,21.528
			c3.556,1.562,7.713,2.321,12.713,2.321c26.046-0.003,78.658-22.279,88.948-26.747c0.26-0.113,0.516-0.234,0.766-0.361
			c46.111-9.594,89.32-30.907,89.73-31.11c4.919-2.428,7.967-7.54,7.765-13.014c-3.952-109.56-74.277-129.67-109.219-132.854
			c-6.227-4.311-14.891-5.11-20.448-5.11c-11.821,0-19.247,3.188-23.411,7.604c-0.564,0.108-1.125,0.221-1.675,0.332
			c-0.675,0.136-1.348,0.277-2.025,0.422c-0.66,0.141-1.318,0.283-1.972,0.431c-0.83,0.188-1.658,0.385-2.5,0.588l-0.49,0.117
			c-0.339,0.08-0.679,0.16-1.015,0.245c-1.264,0.316-2.521,0.649-3.787,0.996c-0.339,0.093-0.677,0.189-1.015,0.286l-0.47,0.134
			c-0.866,0.246-1.728,0.496-2.595,0.756c-0.509,0.153-1.018,0.307-1.5,0.457c-0.939,0.29-1.873,0.59-2.805,0.896l-0.352,0.115
			c-0.277,0.09-0.555,0.18-0.829,0.273c-1.304,0.439-2.604,0.891-3.899,1.362l-0.818,0.304c-1.038,0.383-2.072,0.775-3.123,1.185
			l-1.242,0.494c-0.928,0.372-1.852,0.751-2.762,1.134l-1.173,0.495c-1.275,0.548-2.543,1.106-3.798,1.684
			c-26.934,12.392-47.34,39.142-62.279,81.688c-10.116,4.242-26.615,11.944-47.594,24.494
			c-34.199,20.456-46.116,49.954-45.595,63.718c0.318,8.874,5.916,12.596,8.236,13.761c2.455,1.232,5.048,1.868,7.718,1.868
			c4.21,0,8.157-1.572,11.277-4.46C55.798,198.225,91.355,176.469,119.04,170.736z"/>
		<path style="fill:#6E6E6E;" d="M117.703,169.398c8.566,6.301,14.537,14.865,20.332,23.178c6.279,9.013,12.21,17.527,21.343,21.528
			c3.556,1.562,7.713,2.321,12.713,2.321c26.046-0.003,78.658-22.279,88.948-26.747c0.26-0.113,0.516-0.234,0.766-0.361
			c46.111-9.594,89.32-30.906,89.73-31.11c4.919-2.428,7.967-7.54,7.765-13.014C355.349,35.633,285.025,15.524,250.083,12.34
			c-6.227-4.311-14.891-5.11-20.448-5.11c-11.821,0-19.247,3.188-23.411,7.604c-0.564,0.109-1.125,0.221-1.674,0.332
			c-0.675,0.136-1.348,0.277-2.025,0.422c-0.66,0.141-1.318,0.283-1.971,0.431c-0.83,0.188-1.658,0.385-2.5,0.588l-0.49,0.117
			c-0.34,0.08-0.679,0.16-1.015,0.245c-1.264,0.316-2.521,0.649-3.787,0.996c-0.339,0.093-0.677,0.189-1.015,0.286l-0.47,0.134
			c-0.866,0.246-1.728,0.496-2.595,0.756c-0.509,0.153-1.018,0.307-1.5,0.457c-0.939,0.29-1.873,0.59-2.805,0.896l-0.353,0.115
			c-0.277,0.09-0.555,0.18-0.829,0.273c-1.304,0.439-2.604,0.891-3.899,1.362l-0.818,0.304c-1.038,0.383-2.072,0.775-3.123,1.185
			l-1.242,0.494c-0.928,0.372-1.852,0.751-2.762,1.134l-1.173,0.495c-1.275,0.548-2.543,1.106-3.798,1.684
			c-26.934,12.392-47.34,39.142-62.279,81.688c-10.116,4.243-26.615,11.945-47.594,24.494
			c-34.199,20.456-46.116,49.954-45.595,63.718c0.318,8.874,5.916,12.596,8.236,13.761c2.455,1.232,5.048,1.868,7.718,1.868
			c4.21,0,8.157-1.572,11.277-4.46C54.46,196.887,90.018,175.132,117.703,169.398z"/>
		<path style="fill:#606060;" d="M116.366,168.061c8.566,6.301,14.537,14.865,20.332,23.177c6.279,9.013,12.21,17.527,21.343,21.528
			c3.556,1.562,7.713,2.321,12.713,2.321c26.046-0.003,78.658-22.279,88.948-26.747c0.26-0.113,0.516-0.234,0.766-0.361
			c46.111-9.594,89.32-30.906,89.73-31.11c4.919-2.428,7.967-7.54,7.765-13.014c-3.952-109.56-74.277-129.669-109.218-132.853
			c-6.227-4.311-14.891-5.11-20.448-5.11c-11.821,0-19.247,3.188-23.411,7.604c-0.564,0.108-1.125,0.221-1.674,0.332
			c-0.675,0.136-1.348,0.277-2.025,0.422c-0.66,0.141-1.318,0.283-1.971,0.431c-0.83,0.188-1.658,0.385-2.5,0.588l-0.49,0.117
			c-0.34,0.08-0.679,0.16-1.015,0.245c-1.264,0.316-2.521,0.649-3.787,0.996c-0.339,0.093-0.677,0.189-1.015,0.286l-0.47,0.134
			c-0.865,0.246-1.728,0.496-2.595,0.756c-0.509,0.153-1.018,0.307-1.5,0.457c-0.939,0.29-1.873,0.59-2.805,0.896l-0.353,0.115
			c-0.277,0.09-0.555,0.18-0.829,0.273c-1.304,0.439-2.604,0.891-3.899,1.362l-0.818,0.304c-1.038,0.383-2.072,0.775-3.123,1.185
			l-1.242,0.493c-0.928,0.372-1.852,0.751-2.762,1.134l-1.173,0.495c-1.275,0.548-2.543,1.106-3.798,1.684
			c-26.934,12.392-47.34,39.142-62.279,81.688c-10.116,4.243-26.615,11.945-47.594,24.494
			c-34.199,20.456-46.116,49.954-45.595,63.718c0.318,8.874,5.912,12.603,8.236,13.761c2.451,1.239,5.048,1.868,7.718,1.868
			c4.21,0,8.157-1.572,11.277-4.46C53.123,195.55,88.68,173.794,116.366,168.061z"/>
	</g>
	<path style="fill:#FFFFFF;" d="M116.366,168.061c8.566,6.301,14.537,14.865,20.332,23.177c6.279,9.013,12.21,17.527,21.343,21.528
		c3.556,1.562,7.713,2.321,12.713,2.321c26.046-0.003,78.658-22.279,88.948-26.747c0.26-0.113,0.516-0.234,0.766-0.361
		c46.111-9.594,89.32-30.906,89.73-31.11c4.919-2.428,7.967-7.54,7.765-13.014c-3.952-109.56-74.277-129.669-109.218-132.853
		c-6.227-4.311-14.891-5.11-20.448-5.11c-11.821,0-19.247,3.188-23.411,7.604c-0.564,0.108-1.125,0.221-1.674,0.332
		c-0.675,0.136-1.348,0.277-2.025,0.422c-0.66,0.141-1.318,0.283-1.971,0.431c-0.83,0.188-1.658,0.385-2.5,0.588l-0.49,0.117
		c-0.34,0.08-0.679,0.16-1.015,0.245c-1.264,0.316-2.521,0.649-3.787,0.996c-0.339,0.093-0.677,0.189-1.015,0.286l-0.47,0.134
		c-0.865,0.246-1.728,0.496-2.595,0.756c-0.509,0.153-1.018,0.307-1.5,0.457c-0.939,0.29-1.873,0.59-2.805,0.896l-0.353,0.115
		c-0.277,0.09-0.555,0.18-0.829,0.273c-1.304,0.439-2.604,0.891-3.899,1.362l-0.818,0.304c-1.038,0.383-2.072,0.775-3.123,1.185
		l-1.242,0.493c-0.928,0.372-1.852,0.751-2.762,1.134l-1.173,0.495c-1.275,0.548-2.543,1.106-3.798,1.684
		c-26.934,12.392-47.34,39.142-62.279,81.688c-10.116,4.243-26.615,11.945-47.594,24.494
		c-34.199,20.456-46.116,49.954-45.595,63.718c0.318,8.874,5.912,12.603,8.236,13.761c2.451,1.239,5.048,1.868,7.718,1.868
		c4.21,0,8.157-1.572,11.277-4.46C53.123,195.55,88.68,173.794,116.366,168.061z"/>
	<g>
		<g>
			<path style="fill:#EC2227;" d="M142,137.842c13.169,4.694,24.917,13.663,34.531,24.213c4.718,5.183,9.017,10.698,13.022,16.443
				c7.408,0.059,15.282-0.038,23.697-0.352c17.505-0.658,24.826-0.146,38.875-2.743c46.773-8.651,91.895-31.047,91.895-31.047
				C339.31,13.747,232.876,10.354,170.875,38.88c-37.111,17.073-53.205,65.344-61.394,94.126
				C120.466,133.707,131.585,134.13,142,137.842z"/>
			<path style="fill:#5B3014;" d="M193.607,180.121c-1.368,0-2.724-0.009-4.065-0.018c-0.521-0.006-1.006-0.265-1.306-0.69
				c-4.232-6.074-8.449-11.4-12.888-16.272c-10.339-11.348-22.054-19.574-33.883-23.788c-9.369-3.34-19.574-3.972-29.44-4.586
				l-2.645-0.166c-0.483-0.032-0.93-0.283-1.208-0.676c-0.281-0.396-0.364-0.9-0.233-1.363c9.353-32.85,25.979-78.448,62.265-95.142
				c20.515-9.438,43.958-14.636,66.007-14.636c31.578,0,105.458,11.84,109.414,121.516c0.023,0.629-0.323,1.214-0.888,1.494
				c-0.453,0.224-45.863,22.594-92.317,31.184c-10.841,2.009-17.734,2.181-28.16,2.443c-3.228,0.081-6.801,0.166-10.946,0.32
				C206.724,179.996,200.094,180.121,193.607,180.121z M190.394,176.9c7.391,0.041,15.151-0.076,22.796-0.361
				c4.161-0.155,7.746-0.245,10.986-0.326c10.275-0.259,17.067-0.428,27.658-2.39c42.362-7.831,83.86-27.239,90.546-30.45
				c-1.501-36.152-15.052-117.378-106.17-117.378c-21.598,0-44.563,5.093-64.666,14.342c-34.393,15.823-50.696,59.118-59.97,91.19
				l0.649,0.041c10.088,0.629,20.522,1.272,30.317,4.764c12.323,4.391,24.488,12.915,35.181,24.647
				C182.086,165.774,186.238,170.986,190.394,176.9z"/>
		</g>
		<path style="fill:#CA2127;" d="M295.054,49.796c23.882,26.08,23.479,63.125,28.249,96.092
			c0.073,0.478-27.987,14.222-41.178,21.848c-0.452,0.262-0.907,0.524-1.357,0.789c34.978-10.137,63.253-24.169,63.253-24.169
			c-2.899-80.294-44.244-112.5-90.073-118.776C269.193,30.554,284.078,37.814,295.054,49.796z"/>
		<g>
			<path style="fill:#EF4C41;" d="M253.954,141.482c0.312-19.216,2.41-38.886,0.236-58.05c-1.899-16.75-4.774-37.439-17.804-49.585
				c-4.57-4.263-9.684-6.936-15.104-8.675c-18.018,1.84-35.5,6.843-50.407,13.707c-37.111,17.073-53.205,65.344-61.394,94.126
				c10.986,0.702,22.105,1.124,32.519,4.837c13.169,4.694,24.917,13.663,34.531,24.213c4.718,5.183,9.017,10.698,13.022,16.443
				c7.408,0.059,15.282-0.038,23.697-0.352c17.505-0.658,24.826-0.146,38.875-2.743c1.21-0.227,2.417-0.463,3.62-0.705
				C254.158,163.741,253.773,152.6,253.954,141.482z"/>
			<path style="fill:#5B3014;" d="M193.609,180.121h-0.002c-1.368,0-2.724-0.009-4.065-0.018c-0.521-0.006-1.006-0.265-1.306-0.69
				c-4.232-6.074-8.449-11.4-12.888-16.272c-10.339-11.348-22.054-19.574-33.883-23.788c-9.369-3.34-19.574-3.972-29.44-4.586
				l-2.645-0.166c-0.483-0.032-0.93-0.283-1.208-0.676c-0.281-0.396-0.364-0.9-0.233-1.363c9.353-32.85,25.979-78.448,62.265-95.142
				c15.792-7.265,33.399-12.053,50.919-13.846c0.218-0.018,0.442,0.006,0.654,0.067c6.181,1.983,11.319,4.939,15.709,9.033
				c12.96,12.085,16.148,31.609,18.302,50.578c1.549,13.66,0.942,27.707,0.355,41.285c-0.242,5.579-0.491,11.351-0.582,16.971
				c-0.204,12.521,0.377,23.301,1.775,32.96c0.125,0.841-0.435,1.633-1.268,1.805c-1.213,0.239-2.43,0.481-3.647,0.705
				c-10.841,2.009-17.734,2.181-28.163,2.443c-3.225,0.081-6.798,0.166-10.943,0.32
				C206.724,179.996,200.094,180.121,193.609,180.121z M190.394,176.9c1.06,0.008,2.134,0.012,3.213,0.012h0.002
				c6.447,0,13.036-0.128,19.581-0.373c4.161-0.155,7.746-0.245,10.986-0.326c10.275-0.259,17.067-0.428,27.658-2.39
				c0.708-0.128,1.409-0.259,2.114-0.405c-1.272-9.441-1.795-19.918-1.597-31.964c0.093-5.658,0.342-11.45,0.584-17.055
				c0.584-13.459,1.188-27.372-0.335-40.785c-2.087-18.369-5.144-37.256-17.306-48.595c-3.962-3.692-8.604-6.383-14.183-8.218
				c-17.06,1.785-34.193,6.462-49.567,13.535c-34.393,15.823-50.696,59.118-59.97,91.19l0.649,0.041
				c10.088,0.629,20.522,1.272,30.317,4.764c12.323,4.391,24.488,12.915,35.181,24.647
				C182.086,165.774,186.238,170.986,190.394,176.9z"/>
		</g>
		<path style="fill:#CEC1C8;" d="M120.105,130.999c1.54-9.513,3.19-19.079,6.408-28.193c6.102-17.268,15.636-32.629,28.907-45.29
			c13.005-12.402,27.924-22.009,45.03-27.719c3.727-1.246,7.495-2.318,11.281-3.317c-14.599,2.408-28.603,6.758-40.856,12.399
			c-37.111,17.073-53.205,65.344-61.394,94.126c3.413,0.216,6.833,0.416,10.249,0.687
			C119.845,132.796,119.958,131.902,120.105,130.999z"/>
		<g>
			<path style="fill:#9F1D21;" d="M27.716,196.623c0,0,68.029-50.007,109.203-43.324c0,0-11.499-21.12-40.37-20.853
				C67.675,132.714,26.524,167.232,27.716,196.623z"/>
			<path style="fill:#5B3014;" d="M27.716,198.227c-0.236,0-0.473-0.052-0.696-0.157c-0.534-0.259-0.884-0.792-0.906-1.383
				c-0.501-12.265,5.959-26.088,18.181-38.939c15.17-15.949,36.161-26.758,52.239-26.909h0.559
				c27.533,0,39.456,18.643,41.057,21.385c0.259,0.285,0.411,0.658,0.411,1.075c0,0.888-0.644,1.558-1.622,1.604
				c-0.091-0.006-0.186-0.006-0.279-0.023c-2.427-0.39-5.045-0.591-7.771-0.591c-40.405,0-99.631,43.19-100.222,43.624
				C28.387,198.123,28.054,198.227,27.716,198.227z M97.093,134.048l-0.53,0.003c-15.263,0.14-35.335,10.553-49.943,25.908
				c-10.588,11.13-16.63,22.908-17.268,33.534c5.148-3.605,17.501-11.974,32.658-20.247c29.424-16.065,53.508-23.523,71.592-21.971
				C129.382,145.768,117.95,134.048,97.093,134.048z"/>
		</g>
		<g>
			<path style="fill:#EC2227;" d="M254.133,175.546c0,0-73.379,31.947-90.482,24.449c-17.102-7.498-24.83-54.18-77.708-55.639
				c0,0-50.083,3.786-57.833,51.679c0,0-1.338,2.714-4.013,1.371c-2.672-1.334,2.675-31.778,38.231-53.05
				c35.556-21.269,57.009-27.858,57.009-27.858S209.901,92.343,254.133,175.546z"/>
			<path style="fill:#5B3014;" d="M170.753,202.738c-3.258,0-5.789-0.419-7.744-1.278c-5.949-2.606-10.691-9.406-16.177-17.279
				c-11.574-16.601-25.976-37.258-60.933-38.219c-1.827,0.151-48.75,4.275-56.205,50.33c-0.026,0.157-0.076,0.306-0.145,0.451
				c-0.485,0.979-1.874,2.639-4.021,2.639c-0.708,0-1.43-0.178-2.143-0.539c-1.377-0.687-1.447-2.563-1.469-3.183
				c-0.336-8.884,9.167-34.477,39.592-52.677c35.315-21.123,57.143-27.952,57.358-28.016c0.565-0.151,12.685-3.331,30.348-3.331
				c33.193,0,78.585,10.961,106.336,63.157c0.211,0.393,0.248,0.856,0.098,1.278c-0.146,0.423-0.463,0.769-0.872,0.947
				C252.36,178.065,195.407,202.735,170.753,202.738z M85.82,142.76c36.74,0.999,52.287,23.299,63.64,39.585
				c5.211,7.478,9.712,13.937,14.835,16.179c1.519,0.67,3.694,1.007,6.457,1.007c21.748-0.006,71.557-20.704,81.137-24.772
				c-27.074-49.465-70.692-59.916-102.677-59.916c-17.212,0-29.345,3.174-29.465,3.203c-0.156,0.047-21.656,6.788-56.597,27.689
				c-32.525,19.455-38.965,46.347-37.998,50.371c0.709,0.23,1.212-0.335,1.423-0.632C34.602,147.181,85.31,142.796,85.82,142.76z"/>
		</g>
		<path style="fill:#CA2127;" d="M119.338,116.498c0,0-1.958,0.603-5.642,2.018c20.379-4.056,41.304-3.684,60.494,4.473
			c10.572,4.491,40.668,20.94,21.184,32.955c-15.605,9.624-32.037,17.748-48.849,25.005c6.153,8.774,11.051,16.383,17.126,19.047
			c17.102,7.499,90.482-24.449,90.482-24.449C209.901,92.343,119.338,116.498,119.338,116.498z"/>
		<g>
			<path style="fill:#CE2127;" d="M242.103,24.39c0,2.51-6.182,4.545-13.805,4.545c-7.626,0-13.805-2.036-13.805-4.545
				c0-2.51,6.179-4.543,13.805-4.543C235.921,19.847,242.103,21.879,242.103,24.39z"/>
			<path style="fill:#5B3014;" d="M228.297,30.537c-7.423,0-15.409-1.925-15.409-6.147c0-4.225,7.986-6.147,15.409-6.147
				c7.421,0,15.41,1.922,15.41,6.147C243.707,28.612,235.718,30.537,228.297,30.537z M228.297,21.452
				c-8.007,0-12.026,2.134-12.201,2.95c0.175,0.789,4.195,2.929,12.201,2.929c8.003,0,12.023-2.14,12.201-2.953
				C240.321,23.586,236.301,21.452,228.297,21.452z"/>
		</g>
	</g>
</g>
</svg>
